<?xml version="1.0" encoding="UTF-8" standalone="no"?><svg xmlns="http://www.w3.org/2000/svg" xmlns:xlink="http://www.w3.org/1999/xlink" contentScriptType="application/ecmascript" contentStyleType="text/css" height="749px" preserveAspectRatio="none" style="width:432px;height:749px;" version="1.1" viewBox="0 0 432 749" width="432px" zoomAndPan="magnify"><defs><filter height="300%" id="fbuy3x5gzs3u6" width="300%" x="-1" y="-1"><feGaussianBlur result="blurOut" stdDeviation="2.0"/><feColorMatrix in="blurOut" result="blurOut2" type="matrix" values="0 0 0 0 0 0 0 0 0 0 0 0 0 0 0 0 0 0 .4 0"/><feOffset dx="4.0" dy="4.0" in="blurOut2" result="blurOut3"/><feBlend in="SourceGraphic" in2="blurOut3" mode="normal"/></filter></defs><g><!--MD5=[78bec0fde86ad92ec1dc3fb343b83709]
class Email--><rect fill="#FEFECE" filter="url(#fbuy3x5gzs3u6)" height="60.9551" id="Email" style="stroke: #A80036; stroke-width: 1.5;" width="75" x="234.5" y="27.5"/><ellipse cx="254.9" cy="43.5" fill="#ADD1B2" rx="11" ry="11" style="stroke: #A80036; stroke-width: 1.0;"/><path d="M257.8731,49.1431 Q257.2921,49.4419 256.6529,49.5913 Q256.0138,49.7407 255.3082,49.7407 Q252.8014,49.7407 251.4815,48.0889 Q250.1617,46.437 250.1617,43.3159 Q250.1617,40.1865 251.4815,38.5347 Q252.8014,36.8828 255.3082,36.8828 Q256.0138,36.8828 256.6612,37.0322 Q257.3087,37.1816 257.8731,37.4805 L257.8731,40.2031 Q257.2423,39.6221 256.6488,39.3523 Q256.0553,39.0825 255.4244,39.0825 Q254.0797,39.0825 253.3949,40.1492 Q252.7101,41.2158 252.7101,43.3159 Q252.7101,45.4077 253.3949,46.4744 Q254.0797,47.541 255.4244,47.541 Q256.0553,47.541 256.6488,47.2712 Q257.2423,47.0015 257.8731,46.4204 Z "/><text fill="#000000" font-family="sans-serif" font-size="12" lengthAdjust="spacingAndGlyphs" textLength="31" x="270.1" y="48.0352">Email</text><line style="stroke: #A80036; stroke-width: 1.5;" x1="235.5" x2="308.5" y1="59.5" y2="59.5"/><text fill="#000000" font-family="sans-serif" font-size="11" lengthAdjust="spacingAndGlyphs" textLength="63" x="240.5" y="74.1348">String email</text><line style="stroke: #A80036; stroke-width: 1.5;" x1="235.5" x2="308.5" y1="80.4551" y2="80.4551"/><!--MD5=[3fd616f346a44cd59a91eb10b19e157c]
class User--><rect fill="#FEFECE" filter="url(#fbuy3x5gzs3u6)" height="99.8203" id="User" style="stroke: #A80036; stroke-width: 1.5;" width="99" x="100.5" y="8"/><ellipse cx="133.95" cy="24" fill="#ADD1B2" rx="11" ry="11" style="stroke: #A80036; stroke-width: 1.0;"/><path d="M136.9231,29.6431 Q136.3421,29.9419 135.7029,30.0913 Q135.0638,30.2407 134.3582,30.2407 Q131.8514,30.2407 130.5315,28.5889 Q129.2117,26.937 129.2117,23.8159 Q129.2117,20.6865 130.5315,19.0347 Q131.8514,17.3828 134.3582,17.3828 Q135.0638,17.3828 135.7112,17.5322 Q136.3587,17.6816 136.9231,17.9805 L136.9231,20.7031 Q136.2923,20.1221 135.6988,19.8523 Q135.1053,19.5825 134.4744,19.5825 Q133.1297,19.5825 132.4449,20.6492 Q131.7601,21.7158 131.7601,23.8159 Q131.7601,25.9077 132.4449,26.9744 Q133.1297,28.041 134.4744,28.041 Q135.1053,28.041 135.6988,27.7712 Q136.2923,27.5015 136.9231,26.9204 Z "/><text fill="#000000" font-family="sans-serif" font-size="12" lengthAdjust="spacingAndGlyphs" textLength="26" x="152.05" y="28.5352">User</text><line style="stroke: #A80036; stroke-width: 1.5;" x1="101.5" x2="198.5" y1="40" y2="40"/><text fill="#000000" font-family="sans-serif" font-size="11" lengthAdjust="spacingAndGlyphs" textLength="87" x="106.5" y="54.6348">String firstName</text><text fill="#000000" font-family="sans-serif" font-size="11" lengthAdjust="spacingAndGlyphs" textLength="84" x="106.5" y="67.5898">String lastName</text><text fill="#000000" font-family="sans-serif" font-size="11" lengthAdjust="spacingAndGlyphs" textLength="87" x="106.5" y="80.5449">String password</text><text fill="#000000" font-family="sans-serif" font-size="11" lengthAdjust="spacingAndGlyphs" textLength="69" x="106.5" y="93.5">String phone</text><line style="stroke: #A80036; stroke-width: 1.5;" x1="101.5" x2="198.5" y1="99.8203" y2="99.8203"/><!--MD5=[db6d18d8099558415abc41d00477ab92]
class Admin--><rect fill="#FEFECE" filter="url(#fbuy3x5gzs3u6)" height="48" id="Admin" style="stroke: #A80036; stroke-width: 1.5;" width="69" x="8.5" y="168"/><ellipse cx="23.5" cy="184" fill="#ADD1B2" rx="11" ry="11" style="stroke: #A80036; stroke-width: 1.0;"/><path d="M26.4731,189.6431 Q25.8921,189.9419 25.2529,190.0913 Q24.6138,190.2407 23.9082,190.2407 Q21.4014,190.2407 20.0815,188.5889 Q18.7617,186.937 18.7617,183.8159 Q18.7617,180.6865 20.0815,179.0347 Q21.4014,177.3828 23.9082,177.3828 Q24.6138,177.3828 25.2612,177.5322 Q25.9087,177.6816 26.4731,177.9805 L26.4731,180.7031 Q25.8423,180.1221 25.2488,179.8523 Q24.6553,179.5825 24.0244,179.5825 Q22.6797,179.5825 21.9949,180.6492 Q21.3101,181.7158 21.3101,183.8159 Q21.3101,185.9077 21.9949,186.9744 Q22.6797,188.041 24.0244,188.041 Q24.6553,188.041 25.2488,187.7712 Q25.8423,187.5015 26.4731,186.9204 Z "/><text fill="#000000" font-family="sans-serif" font-size="12" lengthAdjust="spacingAndGlyphs" textLength="37" x="37.5" y="188.5352">Admin</text><line style="stroke: #A80036; stroke-width: 1.5;" x1="9.5" x2="76.5" y1="200" y2="200"/><line style="stroke: #A80036; stroke-width: 1.5;" x1="9.5" x2="76.5" y1="208" y2="208"/><!--MD5=[d6181cb537bdc20c0a3007a98a56832d]
class Student--><rect fill="#FEFECE" filter="url(#fbuy3x5gzs3u6)" height="48" id="Student" style="stroke: #A80036; stroke-width: 1.5;" width="75" x="112.5" y="168"/><ellipse cx="127.5" cy="184" fill="#ADD1B2" rx="11" ry="11" style="stroke: #A80036; stroke-width: 1.0;"/><path d="M130.4731,189.6431 Q129.8921,189.9419 129.2529,190.0913 Q128.6138,190.2407 127.9082,190.2407 Q125.4014,190.2407 124.0815,188.5889 Q122.7617,186.937 122.7617,183.8159 Q122.7617,180.6865 124.0815,179.0347 Q125.4014,177.3828 127.9082,177.3828 Q128.6138,177.3828 129.2612,177.5322 Q129.9087,177.6816 130.4731,177.9805 L130.4731,180.7031 Q129.8423,180.1221 129.2488,179.8523 Q128.6553,179.5825 128.0244,179.5825 Q126.6797,179.5825 125.9949,180.6492 Q125.3101,181.7158 125.3101,183.8159 Q125.3101,185.9077 125.9949,186.9744 Q126.6797,188.041 128.0244,188.041 Q128.6553,188.041 129.2488,187.7712 Q129.8423,187.5015 130.4731,186.9204 Z "/><text fill="#000000" font-family="sans-serif" font-size="12" lengthAdjust="spacingAndGlyphs" textLength="43" x="141.5" y="188.5352">Student</text><line style="stroke: #A80036; stroke-width: 1.5;" x1="113.5" x2="186.5" y1="200" y2="200"/><line style="stroke: #A80036; stroke-width: 1.5;" x1="113.5" x2="186.5" y1="208" y2="208"/><!--MD5=[02e4b9b7573f1156f41e60aa5b4e25a4]
class Company--><rect fill="#FEFECE" filter="url(#fbuy3x5gzs3u6)" height="73.9102" id="Company" style="stroke: #A80036; stroke-width: 1.5;" width="141" x="148.5" y="397"/><ellipse cx="188.25" cy="413" fill="#ADD1B2" rx="11" ry="11" style="stroke: #A80036; stroke-width: 1.0;"/><path d="M191.2231,418.6431 Q190.6421,418.9419 190.0029,419.0913 Q189.3638,419.2407 188.6582,419.2407 Q186.1514,419.2407 184.8315,417.5889 Q183.5117,415.937 183.5117,412.8159 Q183.5117,409.6865 184.8315,408.0347 Q186.1514,406.3828 188.6582,406.3828 Q189.3638,406.3828 190.0112,406.5322 Q190.6587,406.6816 191.2231,406.9805 L191.2231,409.7031 Q190.5923,409.1221 189.9988,408.8523 Q189.4053,408.5825 188.7744,408.5825 Q187.4297,408.5825 186.7449,409.6492 Q186.0601,410.7158 186.0601,412.8159 Q186.0601,414.9077 186.7449,415.9744 Q187.4297,417.041 188.7744,417.041 Q189.4053,417.041 189.9988,416.7712 Q190.5923,416.5015 191.2231,415.9204 Z "/><text fill="#000000" font-family="sans-serif" font-size="12" lengthAdjust="spacingAndGlyphs" textLength="54" x="207.75" y="417.5352">Company</text><line style="stroke: #A80036; stroke-width: 1.5;" x1="149.5" x2="288.5" y1="429" y2="429"/><text fill="#000000" font-family="sans-serif" font-size="11" lengthAdjust="spacingAndGlyphs" textLength="114" x="154.5" y="443.6348">String companyName</text><text fill="#000000" font-family="sans-serif" font-size="11" lengthAdjust="spacingAndGlyphs" textLength="129" x="154.5" y="456.5898">String companyAddress</text><line style="stroke: #A80036; stroke-width: 1.5;" x1="149.5" x2="288.5" y1="462.9102" y2="462.9102"/><!--MD5=[eb0e8f8ddfdc21c3fdb48447501fec67]
class Review--><rect fill="#FEFECE" filter="url(#fbuy3x5gzs3u6)" height="86.8652" id="Review" style="stroke: #A80036; stroke-width: 1.5;" width="122" x="96" y="531"/><ellipse cx="133.5" cy="547" fill="#ADD1B2" rx="11" ry="11" style="stroke: #A80036; stroke-width: 1.0;"/><path d="M136.4731,552.6431 Q135.8921,552.9419 135.2529,553.0913 Q134.6138,553.2407 133.9082,553.2407 Q131.4014,553.2407 130.0815,551.5889 Q128.7617,549.937 128.7617,546.8159 Q128.7617,543.6865 130.0815,542.0347 Q131.4014,540.3828 133.9082,540.3828 Q134.6138,540.3828 135.2612,540.5322 Q135.9087,540.6816 136.4731,540.9805 L136.4731,543.7031 Q135.8423,543.1221 135.2488,542.8523 Q134.6553,542.5825 134.0244,542.5825 Q132.6797,542.5825 131.9949,543.6492 Q131.3101,544.7158 131.3101,546.8159 Q131.3101,548.9077 131.9949,549.9744 Q132.6797,551.041 134.0244,551.041 Q134.6553,551.041 135.2488,550.7712 Q135.8423,550.5015 136.4731,549.9204 Z "/><text fill="#000000" font-family="sans-serif" font-size="12" lengthAdjust="spacingAndGlyphs" textLength="40" x="152.5" y="551.5352">Review</text><line style="stroke: #A80036; stroke-width: 1.5;" x1="97" x2="217" y1="563" y2="563"/><text fill="#000000" font-family="sans-serif" font-size="11" lengthAdjust="spacingAndGlyphs" textLength="110" x="102" y="577.6348">String reviewerName</text><text fill="#000000" font-family="sans-serif" font-size="11" lengthAdjust="spacingAndGlyphs" textLength="65" x="102" y="590.5898">Enum Badge</text><text fill="#000000" font-family="sans-serif" font-size="11" lengthAdjust="spacingAndGlyphs" textLength="76" x="102" y="603.5449">String content</text><line style="stroke: #A80036; stroke-width: 1.5;" x1="97" x2="217" y1="609.8652" y2="609.8652"/><!--MD5=[378e3e2ca7e24a99f4479cd893fbde36]
class Like--><rect fill="#FEFECE" filter="url(#fbuy3x5gzs3u6)" height="60.9551" id="Like" style="stroke: #A80036; stroke-width: 1.5;" width="95" x="187.5" y="276"/><ellipse cx="220.5" cy="292" fill="#ADD1B2" rx="11" ry="11" style="stroke: #A80036; stroke-width: 1.0;"/><path d="M223.4731,297.6431 Q222.8921,297.9419 222.2529,298.0913 Q221.6138,298.2407 220.9082,298.2407 Q218.4014,298.2407 217.0815,296.5889 Q215.7617,294.937 215.7617,291.8159 Q215.7617,288.6865 217.0815,287.0347 Q218.4014,285.3828 220.9082,285.3828 Q221.6138,285.3828 222.2612,285.5322 Q222.9087,285.6816 223.4731,285.9805 L223.4731,288.7031 Q222.8423,288.1221 222.2488,287.8523 Q221.6553,287.5825 221.0244,287.5825 Q219.6797,287.5825 218.9949,288.6492 Q218.3101,289.7158 218.3101,291.8159 Q218.3101,293.9077 218.9949,294.9744 Q219.6797,296.041 221.0244,296.041 Q221.6553,296.041 222.2488,295.7712 Q222.8423,295.5015 223.4731,294.9204 Z "/><text fill="#000000" font-family="sans-serif" font-size="12" lengthAdjust="spacingAndGlyphs" textLength="23" x="238.5" y="296.5352">Like</text><line style="stroke: #A80036; stroke-width: 1.5;" x1="188.5" x2="281.5" y1="308" y2="308"/><text fill="#000000" font-family="sans-serif" font-size="11" lengthAdjust="spacingAndGlyphs" textLength="83" x="193.5" y="322.6348">boolean isLiked</text><line style="stroke: #A80036; stroke-width: 1.5;" x1="188.5" x2="281.5" y1="328.9551" y2="328.9551"/><ellipse cx="150" cy="306.5" fill="#000000" rx="2" ry="2" style="stroke: none; stroke-width: 1.0;"/><!--MD5=[7120b352ef320314276712e4edfbfd0d]
class InterviewReview--><rect fill="#FEFECE" filter="url(#fbuy3x5gzs3u6)" height="60.9551" id="InterviewReview" style="stroke: #A80036; stroke-width: 1.5;" width="144" x="6" y="678"/><ellipse cx="30.45" cy="694" fill="#ADD1B2" rx="11" ry="11" style="stroke: #A80036; stroke-width: 1.0;"/><path d="M33.4231,699.6431 Q32.8421,699.9419 32.2029,700.0913 Q31.5638,700.2407 30.8582,700.2407 Q28.3514,700.2407 27.0315,698.5889 Q25.7117,696.937 25.7117,693.8159 Q25.7117,690.6865 27.0315,689.0347 Q28.3514,687.3828 30.8582,687.3828 Q31.5638,687.3828 32.2112,687.5322 Q32.8587,687.6816 33.4231,687.9805 L33.4231,690.7031 Q32.7923,690.1221 32.1988,689.8523 Q31.6053,689.5825 30.9744,689.5825 Q29.6297,689.5825 28.9449,690.6492 Q28.2601,691.7158 28.2601,693.8159 Q28.2601,695.9077 28.9449,696.9744 Q29.6297,698.041 30.9744,698.041 Q31.6053,698.041 32.1988,697.7712 Q32.7923,697.5015 33.4231,696.9204 Z "/><text fill="#000000" font-family="sans-serif" font-size="12" lengthAdjust="spacingAndGlyphs" textLength="91" x="46.55" y="698.5352">InterviewReview</text><line style="stroke: #A80036; stroke-width: 1.5;" x1="7" x2="149" y1="710" y2="710"/><text fill="#000000" font-family="sans-serif" font-size="11" lengthAdjust="spacingAndGlyphs" textLength="132" x="12" y="724.6348">String InterviewQuestion</text><line style="stroke: #A80036; stroke-width: 1.5;" x1="7" x2="149" y1="730.9551" y2="730.9551"/><!--MD5=[c6afb200842455016c0eb82c8b157734]
class WorkReview--><rect fill="#FEFECE" filter="url(#fbuy3x5gzs3u6)" height="60.9551" id="WorkReview" style="stroke: #A80036; stroke-width: 1.5;" width="101" x="185.5" y="678"/><ellipse cx="200.5" cy="694" fill="#ADD1B2" rx="11" ry="11" style="stroke: #A80036; stroke-width: 1.0;"/><path d="M203.4731,699.6431 Q202.8921,699.9419 202.2529,700.0913 Q201.6138,700.2407 200.9082,700.2407 Q198.4014,700.2407 197.0815,698.5889 Q195.7617,696.937 195.7617,693.8159 Q195.7617,690.6865 197.0815,689.0347 Q198.4014,687.3828 200.9082,687.3828 Q201.6138,687.3828 202.2612,687.5322 Q202.9087,687.6816 203.4731,687.9805 L203.4731,690.7031 Q202.8423,690.1221 202.2488,689.8523 Q201.6553,689.5825 201.0244,689.5825 Q199.6797,689.5825 198.9949,690.6492 Q198.3101,691.7158 198.3101,693.8159 Q198.3101,695.9077 198.9949,696.9744 Q199.6797,698.041 201.0244,698.041 Q201.6553,698.041 202.2488,697.7712 Q202.8423,697.5015 203.4731,696.9204 Z "/><text fill="#000000" font-family="sans-serif" font-size="12" lengthAdjust="spacingAndGlyphs" textLength="69" x="214.5" y="698.5352">WorkReview</text><line style="stroke: #A80036; stroke-width: 1.5;" x1="186.5" x2="285.5" y1="710" y2="710"/><text fill="#000000" font-family="sans-serif" font-size="11" lengthAdjust="spacingAndGlyphs" textLength="75" x="191.5" y="724.6348">String JobTitle</text><line style="stroke: #A80036; stroke-width: 1.5;" x1="186.5" x2="285.5" y1="730.9551" y2="730.9551"/><!--MD5=[71b0b6a13faa744342078bce19fa38f0]
class Badge--><rect fill="#FEFECE" filter="url(#fbuy3x5gzs3u6)" height="99.8203" id="Badge" style="stroke: #A80036; stroke-width: 1.5;" width="77" x="344.5" y="8"/><ellipse cx="363.55" cy="24" fill="#EB937F" rx="11" ry="11" style="stroke: #A80036; stroke-width: 1.0;"/><path d="M367.6643,30 L359.9445,30 L359.9445,17.6069 L367.6643,17.6069 L367.6643,19.7651 L362.3933,19.7651 L362.3933,22.438 L367.1662,22.438 L367.1662,24.5962 L362.3933,24.5962 L362.3933,27.8418 L367.6643,27.8418 Z "/><text fill="#000000" font-family="sans-serif" font-size="12" lengthAdjust="spacingAndGlyphs" textLength="36" x="378.45" y="28.5352">Badge</text><line style="stroke: #A80036; stroke-width: 1.5;" x1="345.5" x2="420.5" y1="40" y2="40"/><text fill="#000000" font-family="sans-serif" font-size="11" lengthAdjust="spacingAndGlyphs" textLength="53" x="350.5" y="54.6348">AWESOME</text><text fill="#000000" font-family="sans-serif" font-size="11" lengthAdjust="spacingAndGlyphs" textLength="34" x="350.5" y="67.5898">GOOD</text><text fill="#000000" font-family="sans-serif" font-size="11" lengthAdjust="spacingAndGlyphs" textLength="65" x="350.5" y="80.5449">MEDIOCORE</text><text fill="#000000" font-family="sans-serif" font-size="11" lengthAdjust="spacingAndGlyphs" textLength="22" x="350.5" y="93.5">BAD</text><line style="stroke: #A80036; stroke-width: 1.5;" x1="345.5" x2="420.5" y1="99.8203" y2="99.8203"/><!--MD5=[dbc364445409b51c9b407d19a07b4adf]
link User to Email--><path d="M199.56,58 C211.16,58 222.77,58 234.37,58 " fill="none" id="User-Email" style="stroke: #A80036; stroke-width: 1.0;"/><text fill="#000000" font-family="sans-serif" font-size="13" lengthAdjust="spacingAndGlyphs" textLength="8" x="207.4266" y="54.5028">1</text><text fill="#000000" font-family="sans-serif" font-size="13" lengthAdjust="spacingAndGlyphs" textLength="8" x="218.4343" y="54.1726">1</text><!--MD5=[29fe19ce294944fa80f389ae9bd987a4]
reverse link User to Student--><path d="M150,128.16 C150,142.42 150,156.48 150,167.67 " fill="none" id="User&lt;-Student" style="stroke: #A80036; stroke-width: 1.0;"/><polygon fill="none" points="143,128.15,150,108.15,157,128.15,143,128.15" style="stroke: #A80036; stroke-width: 1.0;"/><!--MD5=[446eb71bf9061613e2e73c538cc7ca64]
reverse link User to Company--><path d="M210.19,123.45 C243.74,163.91 282.24,219.07 300,276 C308.07,301.88 309.31,311.54 300,337 C291.77,359.53 275.65,380.42 259.95,396.93 " fill="none" id="User&lt;-Company" style="stroke: #A80036; stroke-width: 1.0;"/><polygon fill="none" points="204.79,127.91,197.15,108.15,215.45,118.83,204.79,127.91" style="stroke: #A80036; stroke-width: 1.0;"/><!--MD5=[933987b91d2b08b1b4941f3221fa6cec]
reverse link User to Admin--><path d="M97.53,123.73 C84.76,139.48 71.92,155.32 61.91,167.67 " fill="none" id="User&lt;-Admin" style="stroke: #A80036; stroke-width: 1.0;"/><polygon fill="none" points="92.13,119.28,110.16,108.15,103,128.1,92.13,119.28" style="stroke: #A80036; stroke-width: 1.0;"/><!--MD5=[b8859d1497042c753172fa9851fd53c8]
reverse link Company to Review--><path d="M197.48,483.06 C190.54,498.58 182.89,515.66 176.13,530.76 " fill="none" id="Company&lt;-Review" style="stroke: #A80036; stroke-width: 1.0;"/><polygon fill="#A80036" points="202.87,471.03,196.7659,474.8693,197.9621,481.9805,204.0662,478.1412,202.87,471.03" style="stroke: #A80036; stroke-width: 1.0;"/><text fill="#000000" font-family="sans-serif" font-size="13" lengthAdjust="spacingAndGlyphs" textLength="8" x="191.2843" y="491.5659">1</text><text fill="#000000" font-family="sans-serif" font-size="13" lengthAdjust="spacingAndGlyphs" textLength="22" x="155.4257" y="520.1975">0..*</text><!--MD5=[613684f8f4772a5c0cd2cab0593996e4]
link Student to apoint15--><path d="M150,216.04 C150,245.87 150,295.1 150,304.08 " fill="none" id="Student-apoint15" style="stroke: #A80036; stroke-width: 1.0;"/><text fill="#000000" font-family="sans-serif" font-size="13" lengthAdjust="spacingAndGlyphs" textLength="22" x="152.8188" y="236.7303">0..*</text><!--MD5=[7731b433a18f22d2009c9789ac659ad8]
link apoint15 to Company--><path d="M150.77,308.91 C155.48,317.47 180.66,363.27 199.07,396.74 " fill="none" id="apoint15-Company" style="stroke: #A80036; stroke-width: 1.0;"/><text fill="#000000" font-family="sans-serif" font-size="13" lengthAdjust="spacingAndGlyphs" textLength="22" x="171.5606" y="386.3711">0..*</text><!--MD5=[c5d363336666674f8c273653d54d9d74]
link apoint15 to Like--><path d="M152.32,306.5 C163.95,306.5 175.58,306.5 187.2,306.5 " fill="none" id="apoint15-Like" style="stroke: #A80036; stroke-width: 1.0; stroke-dasharray: 7.0,7.0;"/><!--MD5=[beda0fb32fd922830d7ee4103ba5ddae]
reverse link Student to Review--><path d="M139.29,229.3 C135.55,243.7 131.84,260.5 130,276 C126.75,303.38 125.39,427.41 131,471 C133.55,490.85 138.65,512.38 143.65,530.56 " fill="none" id="Student&lt;-Review" style="stroke: #A80036; stroke-width: 1.0;"/><polygon fill="#FFFFFF" points="142.81,216.34,137.3745,221.0787,139.6582,227.9187,145.0936,223.18,142.81,216.34" style="stroke: #A80036; stroke-width: 1.0;"/><text fill="#000000" font-family="sans-serif" font-size="13" lengthAdjust="spacingAndGlyphs" textLength="8" x="132.0824" y="236.7072">1</text><text fill="#000000" font-family="sans-serif" font-size="13" lengthAdjust="spacingAndGlyphs" textLength="22" x="117.9214" y="520.2857">0..*</text><!--MD5=[c99440d189cc8c9743906f5baa32551e]
reverse link Review to InterviewReview--><path d="M120.93,635.77 C112.2,650.36 103.24,665.33 95.78,677.79 " fill="none" id="Review&lt;-InterviewReview" style="stroke: #A80036; stroke-width: 1.0;"/><polygon fill="none" points="115.07,631.92,131.35,618.36,127.09,639.11,115.07,631.92" style="stroke: #A80036; stroke-width: 1.0;"/><!--MD5=[152246c5798924dbc3246771898029be]
reverse link Review to WorkReview--><path d="M193.07,635.77 C201.8,650.36 210.76,665.33 218.22,677.79 " fill="none" id="Review&lt;-WorkReview" style="stroke: #A80036; stroke-width: 1.0;"/><polygon fill="none" points="186.91,639.11,182.65,618.36,198.93,631.92,186.91,639.11" style="stroke: #A80036; stroke-width: 1.0;"/><!--MD5=[b19277a88df96ca1a8143c66090ead5f]
@startuml uml

class Email {
    String email
}

class User {
    String firstName
    String lastName
    String password
    String phone
}

User "1" - "1" Email 

class Admin {

}

class Student {
     
}


class Company {
    String companyName
    String companyAddress
}

User <|- - Student 
User <|- - Company
User <|- - Admin

Company "1" *- - "0..*" Review
Student "0..*" - - "0..*" Company
(Student, Company) .. Like
class Like {
    boolean isLiked
}


class Review {
    String reviewerName
    Enum Badge
    String content
}

Student "1" o- - "0..*" Review

class InterviewReview {
    String InterviewQuestion

}

class WorkReview {
    String JobTitle
}

enum Badge {
    AWESOME
    GOOD
    MEDIOCORE
    BAD
}
Review <|- - InterviewReview
Review <|- - WorkReview
@enduml

PlantUML version 1.2020.06(Sun Apr 05 08:38:32 EDT 2020)
(GPL source distribution)
Java Runtime: OpenJDK Runtime Environment
JVM: OpenJDK 64-Bit Server VM
Java Version: 13.0.2+8
Operating System: Mac OS X
Default Encoding: UTF-8
Language: en
Country: US
--></g></svg>